<svg id="Capa_1" enable-background="new 0 0 509.889 509.889" height="512" viewBox="0 0 509.889 509.889" width="512" xmlns="http://www.w3.org/2000/svg"><g><g><g><circle cx="114.941" cy="339.595" fill="#655e67" r="78.144"/></g></g><g><g><ellipse cx="114.941" cy="339.595" fill="#a29aa5" rx="44.785" ry="44.785" transform="matrix(.16 -.987 .987 .16 -238.68 398.654)"/></g></g><g><g><path d="m117.053 322.813 35.384-103.301 24.685 10.041-35.384 103.301z" fill="#e8e8e8"/></g></g><g><g><path d="m364.835 130.729 50.137 22.644c12.512 5.651 21.132 17.464 22.696 31.103 2.302 20.07-11.1 38.576-30.887 42.649l-8.923 1.837-30.643-44.782z" fill="#f8e883"/></g></g><g><g><path d="m356.277 124.068 28.036-11.959c7.096-2.961 15.013 1.875 15.619 9.54l1.049 13.265c.261 3.305-.366 6.619-1.817 9.6l-17.71 36.375z" fill="#655e67"/></g></g><g><g><path d="m167.611 237.773 9.667 13.23c18.255 26.8 43.636 47.964 73.279 61.106l69.225-82.465-46.033-19.704z" fill="#b1abb4"/></g></g><g><g><circle cx="421.439" cy="343.595" fill="#655e67" r="78.144"/></g></g><g><g><ellipse cx="421.439" cy="343.595" fill="#a29aa5" rx="44.785" ry="44.785" transform="matrix(.23 -.973 .973 .23 -9.791 674.817)"/></g></g><g><g><path d="m345.099 246.405-31.055 63.328c-14.472 29.512-44.478 48.216-77.347 48.216l-55.015-10v-35.84l109.644-94.646z" fill="#8c818f"/></g></g><g><g><path d="m291.326 217.464-11.522 9.946 35.294 18.996-31.055 63.328c-11.669 23.795-33.437 40.556-58.661 46.16l11.314 2.056c32.87 0 62.875-18.704 77.347-48.216l31.055-63.328z" fill="#766d78"/></g></g><g><g><path d="m250.557 238.776h-75.51c-15.447 0-27.969-12.522-27.969-27.969v-4.649h70.861c18.015 0 32.618 14.604 32.618 32.618z" fill="#655e67"/></g></g><g><g><path d="m251.056 240.153-15.016-24.383c-2.287-3.714-1.651-8.524 1.523-11.516l19.826-18.687c16.518-16.342 40.734-22.18 62.885-15.161l23.686 7.319c20.167 6.232 33.852 24.963 33.658 46.07l-.213 23.228c-.027 2.905-2.512 5.177-5.408 4.943l-117.081-9.448c-1.59-.129-3.023-1.007-3.86-2.365z" fill="#f5de46"/></g></g><g><g><path d="m347.522 178.825-27.247-8.42c-12.893-4.085-26.483-3.807-38.85.355l26.097 8.065c18.053 5.579 30.304 22.347 30.13 41.242l-.267 29.106 42.431 3.424-2.163-32.53c.173-18.895-12.078-35.663-30.131-41.242z" fill="#f3d332"/></g></g><g><g><path d="m406.44 336.799-66.373-197.433c-.781-2.324-2.283-4.338-4.287-5.75l-19.645-13.841c-5.229-3.684-6.459-10.921-2.74-16.125 3.577-5.005 10.453-6.32 15.624-2.988l29.115 18.765c2.198 1.416 3.848 3.538 4.681 6.016l68.276 203.094c2.04 6.069-1.257 12.638-7.342 14.629l-2.798.915c-6.017 1.968-12.494-1.283-14.511-7.282z" fill="#c8c3ca"/></g></g><g><g><path d="m200.701 355.525-91.457 4.128c-4.738.214-8.868-3.196-9.555-7.889l-2.344-16.011c-.687-4.693 2.292-9.144 6.893-10.297l88.802-22.263c14.451-2.116 27.881 7.884 29.997 22.335 2.114 14.452-7.886 27.881-22.336 29.997z" fill="#c8c3ca"/></g></g><g><g><circle cx="306.647" cy="99.646" fill="#a29aa5" r="21.423"/></g></g><g><g><path d="m502.389 431.665h-494.889c-4.142 0-7.5-3.358-7.5-7.5s3.358-7.5 7.5-7.5h494.889c4.143 0 7.5 3.358 7.5 7.5s-3.358 7.5-7.5 7.5z" fill="#d9d9d9"/></g></g><g><g><path d="m317.382 310.412c-1.462 0-2.938-.426-4.234-1.315l-69.695-47.784c-3.416-2.342-4.287-7.01-1.944-10.427 2.342-3.416 7.01-4.287 10.427-1.945l69.695 47.784c3.416 2.342 4.287 7.011 1.944 10.427-1.454 2.12-3.804 3.26-6.193 3.26z" fill="#655e67"/></g></g><g><g><path d="m295.63 339.722c-1.45 0-2.916-.42-4.207-1.296l-74.87-50.844c-3.427-2.327-4.318-6.992-1.991-10.418 2.328-3.427 6.991-4.318 10.418-1.991l74.871 50.844c3.427 2.327 4.317 6.991 1.99 10.418-1.45 2.136-3.81 3.287-6.211 3.287z" fill="#655e67"/></g></g><g><g><path d="m23.017 281.691c-.341 0-.686-.023-1.034-.071-4.104-.566-6.971-4.351-6.405-8.454 4.015-29.122 20.043-55.617 43.974-72.691l3.538-2.525c3.372-2.405 8.056-1.622 10.461 1.749 2.406 3.372 1.623 8.056-1.749 10.461l-3.539 2.525c-20.586 14.688-34.373 37.479-37.827 62.529-.517 3.756-3.732 6.477-7.419 6.477z" fill="#b1abb4"/></g></g><g><g><path d="m148.928 218.471h-49.612c-53.876 0-63.355-48.763-64.934-61.971-.208-1.742 1.157-3.265 2.911-3.265h76.691c19.299 0 34.944 15.645 34.944 34.944z" fill="#8c818f"/></g></g><g><g><path d="m113.984 153.236h-30c19.299 0 34.944 15.645 34.944 34.944v30.291h30v-30.291c0-19.299-15.645-34.944-34.944-34.944z" fill="#766d78"/></g></g></g></svg>